<svg xmlns="http://www.w3.org/2000/svg" viewBox="0 0 200 50" fill="none">
  <defs>
    <linearGradient id="logoGrad" x1="0" y1="0" x2="50" y2="50" gradientUnits="userSpaceOnUse">
      <stop offset="0%" stop-color="#00B4D8"/>
      <stop offset="100%" stop-color="#0077B6"/>
    </linearGradient>
    <linearGradient id="crossGrad" x1="5" y1="5" x2="45" y2="45" gradientUnits="userSpaceOnUse">
      <stop offset="0%" stop-color="#48CAE4"/>
      <stop offset="100%" stop-color="#0077B6"/>
    </linearGradient>
  </defs>
  <g transform="translate(2,3)">
    <path d="M13 3 h14 a3 3 0 0 1 3 3 v8 h8 a3 3 0 0 1 3 3 v10 a3 3 0 0 1-3 3 h-8 v8 a3 3 0 0 1-3 3 h-14 a3 3 0 0 1-3-3 v-8 h-7 a3 3 0 0 1-3-3 v-10 a3 3 0 0 1 3-3 h7 v-8 a3 3 0 0 1 3-3z" fill="url(#crossGrad)" opacity="0.9"/>
    <line x1="12" y1="18" x2="12" y2="26" stroke="white" stroke-width="1.5" stroke-linecap="round"/>
    <line x1="16" y1="15" x2="16" y2="29" stroke="white" stroke-width="1.5" stroke-linecap="round"/>
    <line x1="20" y1="12" x2="20" y2="32" stroke="white" stroke-width="1.5" stroke-linecap="round"/>
    <line x1="24" y1="15" x2="24" y2="29" stroke="white" stroke-width="1.5" stroke-linecap="round"/>
    <line x1="28" y1="18" x2="28" y2="26" stroke="white" stroke-width="1.5" stroke-linecap="round"/>
    <path d="M32 8 C40 4, 47 12, 44 22 C42 28, 36 32, 30 34" stroke="rgba(255,255,255,0.6)" stroke-width="1.5" fill="none" stroke-linecap="round"/>
  </g>
  <text x="56" y="32" font-family="Inter, system-ui, sans-serif" font-weight="800" font-size="24">
    <tspan fill="#FFFFFF">Medi</tspan><tspan fill="#48CAE4">Voice</tspan>
  </text>
</svg>
